PathFileType  4	(X/Y/Z) C:\Users\antoi\Documents\MyRepositories\mobilecap\ResultsAnalysis
DataRate	CameraRate	NumFrames	NumMarkers	Units	OrigDataRate	OrigDataStartFrame	OrigNumFrames
100.0	100.0	6	51	mm	100.0	38	149
Frame#	Time	r_knee			r_shank_antsup			r_ankle			r_calc			r_5meta			r_toe			L_knee			L_shank_antsup			L_ankle			L_calc			L_5meta			L_toe			r_sh2			r_sh3			r_sh4			L_sh2			L_sh3			r_thigh1			r_thigh2			r_thigh3			r_thigh4			r_thigh5			L_thigh1			L_thigh2			L_thigh3			L_thigh4			r.ASIS			r.PSIS			L.ASIS			L.PSIS			C7			R_Shoulder			L_Shoulder			R_Sternum			L_Sternum			R_humerus			R_elbow_med			R_elbow_lat			R_forearm			R_wrist_radius			R_wrist_ulna			L_humerus			L_elbow_med			L_elbow_lat			L_forearm			L_wrist_radius			L_wrist_ulna			R_HJC			L_HJC			R_HJC_reg			L_HJC_reg			
		X1	Y1	Z1	X2	Y2	Z2	X3	Y3	Z3	X4	Y4	Z4	X5	Y5	Z5	X6	Y6	Z6	X7	Y7	Z7	X8	Y8	Z8	X9	Y9	Z9	X10	Y10	Z10	X11	Y11	Z11	X12	Y12	Z12	X13	Y13	Z13	X14	Y14	Z14	X15	Y15	Z15	X16	Y16	Z16	X17	Y17	Z17	X18	Y18	Z18	X19	Y19	Z19	X20	Y20	Z20	X21	Y21	Z21	X22	Y22	Z22	X23	Y23	Z23	X24	Y24	Z24	X25	Y25	Z25	X26	Y26	Z26	X27	Y27	Z27	X28	Y28	Z28	X29	Y29	Z29	X30	Y30	Z30	X31	Y31	Z31	X32	Y32	Z32	X33	Y33	Z33	X34	Y34	Z34	X35	Y35	Z35	X36	Y36	Z36	X37	Y37	Z37	X38	Y38	Z38	X39	Y39	Z39	X40	Y40	Z40	X41	Y41	Z41	X42	Y42	Z42	X43	Y43	Z43	X44	Y44	Z44	X45	Y45	Z45	X46	Y46	Z46	X47	Y47	Z47	X48	Y48	Z48	X49	Y49	Z49	X50	Y50	Z50	X51	Y51	Z51	

38	0.37000000	244.48576	479.19015	-75.28658	270.54393	414.31019	-74.64638	197.39775	83.19759	-108.03851	143.67991	64.18183	-154.61831	309.79354	37.49250	-97.01515	352.34541	64.32357	-147.67338	465.67888	499.27162	-334.68670	492.50269	410.48032	-320.37432	370.01314	127.50773	-317.40266	307.56466	96.98716	-271.77961	465.38960	59.55445	-343.05965	516.18924	77.14261	-290.49909	246.09608	304.62989	-74.18390	197.26913	430.57637	-57.22913	163.53683	319.04454	-63.49732	419.72358	441.33162	-363.50376	386.62527	323.62915	-367.55687	319.81378	719.89718	-18.71266	309.12246	607.99244	-38.02538	243.24026	591.97900	-41.46858	205.54615	727.03908	-27.41895	194.98799	618.49997	-63.21000	393.28694	766.38785	-379.24542	455.38007	642.76037	-358.77039	293.65663	716.64801	-383.39698	351.82193	598.17739	-339.98350	377.99879	918.23804	-78.44134	169.38975	969.46401	-159.86762	383.18771	929.95346	-298.89880	175.44935	967.43507	-241.89204	285.29861	1398.42857	-127.68013	341.56122	1347.14081	8.60666	328.73544	1383.68834	-271.94254	409.46860	1327.67557	-116.59542	407.27217	1330.84675	-156.46204	377.26853	1234.36350	55.29386	313.13032	1021.13169	55.83031	353.50221	1035.95574	104.12755	427.28905	977.00784	109.60931	492.78994	846.83578	103.31287	466.19191	838.00650	131.71043	320.79394	1294.65387	-359.04101	236.63307	1084.28575	-377.20166	262.23329	1111.57598	-432.28304	321.00809	1025.76839	-465.43855	359.37602	903.63556	-482.49015	326.17117	901.82348	-505.65672	287.25719	838.75780	-92.46536	296.34068	849.60782	-299.49339	297.01248	865.82419	-112.98393	307.74622	862.22944	-258.29567	
39	0.38000000	248.36481	479.41658	-75.86445	273.88399	414.30080	-75.14924	197.69939	83.78796	-108.71656	144.03254	64.71449	-155.27268	309.80197	37.60289	-97.23803	352.74107	63.67903	-147.99096	475.60219	498.25694	-332.34667	506.30349	411.60695	-317.93010	402.72663	120.76877	-316.98051	341.67530	86.82080	-272.08030	502.02357	58.42825	-341.70596	551.62773	79.27060	-288.70118	248.36679	304.85396	-74.74394	200.60043	431.15329	-58.08131	165.81804	319.98773	-64.41989	431.98049	437.85087	-361.70528	406.69767	318.28652	-366.40269	325.97275	719.39099	-19.09026	314.24921	607.57089	-38.39892	248.23882	592.27378	-42.28395	211.91585	727.52376	-28.32218	200.44502	619.15279	-64.34579	404.63020	765.94635	-377.77897	465.88998	642.08756	-356.28722	304.96449	716.52690	-383.85703	361.90613	597.59257	-339.61281	386.33257	917.76245	-77.91243	178.66098	968.83884	-160.97958	393.79566	929.91586	-298.28573	185.42931	966.78516	-242.90101	294.30089	1397.88807	-128.26886	349.63219	1347.00001	8.48168	338.39891	1382.82030	-272.20881	418.26737	1327.21523	-116.25879	416.35842	1330.36674	-156.09999	385.67618	1234.62734	55.37687	323.17401	1020.73373	56.19525	363.36030	1035.98729	104.39731	437.77550	977.72440	109.63774	504.52087	848.22145	103.08609	478.00637	839.09743	131.56265	331.13483	1293.63261	-359.11450	248.10613	1082.74949	-377.17133	273.56382	1110.18736	-432.28281	332.58254	1024.60115	-465.31619	371.49614	902.65495	-482.21176	338.21925	900.67576	-505.49524	296.07448	838.13371	-92.81959	307.00834	849.39672	-299.73646	305.87529	865.55925	-113.11644	317.87213	861.91850	-258.33212	
40	0.39000000	252.43100	479.61818	-76.37249	277.37633	414.25458	-75.62034	198.09575	84.35676	-109.40719	144.48833	65.21192	-155.93579	309.82054	37.72769	-97.45124	353.11552	62.99129	-148.32690	484.81380	496.72811	-330.06361	519.47307	412.61499	-315.43819	435.51922	114.99245	-316.29771	375.96887	77.76713	-272.17805	538.29984	58.66380	-340.10441	586.48067	82.79435	-286.70983	250.73166	305.06340	-75.26378	204.07358	431.70925	-58.89442	168.23067	320.91876	-65.31424	443.87812	434.12364	-359.92432	426.56136	313.14203	-365.19613	332.19459	718.84871	-19.34889	319.49996	607.13648	-38.71539	253.42949	592.50616	-43.05772	218.40141	727.92615	-29.24041	206.18279	619.75625	-65.54403	415.81250	765.09548	-376.26554	475.94850	640.91469	-353.82295	316.03293	716.21734	-384.25688	371.50260	596.75163	-339.28885	394.78725	917.20330	-77.33679	188.08177	968.06301	-162.11063	404.51784	929.66051	-297.61729	195.55354	965.98446	-243.92118	303.34980	1397.22685	-129.03346	357.68732	1346.79818	8.20800	348.19049	1381.80792	-272.62431	427.08863	1326.69000	-116.03920	425.51902	1329.80708	-155.85932	393.97160	1234.83438	55.47312	333.01927	1020.29541	56.43138	372.99186	1035.95387	104.60178	448.02875	978.41392	109.67331	515.99588	849.58949	102.91643	489.57134	840.17641	131.43006	341.60935	1292.43878	-359.30856	259.72363	1081.03983	-377.23094	285.04857	1108.62748	-432.37377	344.29546	1023.22700	-465.21023	383.78525	901.48277	-481.85618	350.39277	899.29355	-505.27151	305.00924	837.41712	-93.10068	317.81706	848.97438	-299.89329	314.88430	865.11949	-113.19461	328.13758	861.43237	-258.30832	
41	0.40000000	256.66493	479.80586	-76.79236	280.97433	414.18186	-76.04237	198.60952	84.92474	-110.10048	145.01413	65.72879	-156.58614	309.87318	37.86146	-97.65021	353.45824	62.27106	-148.67739	493.39471	494.69768	-327.89554	532.04566	413.52590	-312.95533	468.16604	110.37699	-315.36204	410.25465	69.98459	-272.05075	573.99852	60.41446	-338.28961	620.52371	87.77528	-284.55246	253.16288	305.26528	-75.71590	207.66106	432.26962	-59.65338	170.76571	321.84713	-66.17798	455.48911	430.24458	-358.17832	446.18818	308.31235	-363.93397	338.47737	718.28303	-19.46976	324.89157	606.71304	-38.98953	258.79424	592.70083	-43.76013	224.98934	728.29612	-30.16793	212.19932	620.36415	-66.79241	426.83864	763.80303	-374.75758	485.54741	639.20037	-351.44754	326.87777	715.68059	-384.58503	380.63922	595.64505	-338.99312	403.36790	916.54799	-76.70110	197.65807	967.16456	-163.28626	415.34908	929.12635	-296.88895	205.84437	965.07515	-244.97839	312.43300	1396.46936	-129.98022	365.75045	1346.53176	7.77997	358.11934	1380.65435	-273.19294	435.96121	1326.09463	-115.94052	434.76557	1329.15228	-155.74805	402.15390	1234.96470	55.53806	342.68644	1019.82710	56.54373	382.42388	1035.86092	104.74792	458.06468	979.05943	109.71297	527.22240	850.92238	102.78693	500.90935	841.22930	131.30666	352.23203	1291.06588	-359.62703	271.44865	1079.19361	-377.42388	296.67949	1106.90958	-432.57493	356.17771	1021.64660	-465.12202	396.24497	900.10263	-481.42181	362.74082	897.68020	-504.98995	314.02212	836.62212	-93.29761	328.74492	848.31354	-299.95387	324.01747	864.46149	-113.23552	338.54942	860.75264	-258.24194	
42	0.41000000	261.02546	479.98625	-77.12535	284.63308	414.09258	-76.41045	199.23412	85.52263	-110.79364	145.56676	66.31499	-157.21484	309.97254	37.99120	-97.83645	353.77321	61.52560	-149.04567	501.46000	492.21097	-325.87936	544.05320	414.37524	-310.53578	500.38756	107.09416	-314.21325	444.30816	63.60685	-271.69267	608.86758	63.73624	-336.31386	653.54752	94.16065	-282.26812	255.64268	305.46675	-76.08764	211.33437	432.85384	-60.35036	173.40531	322.78312	-67.01222	466.86090	426.31886	-356.47786	465.51920	303.91221	-362.61286	344.83796	717.69076	-19.45462	330.42688	606.30586	-39.23719	264.30275	592.87426	-44.37356	231.66183	728.68006	-31.08603	218.45189	621.01442	-68.05374	437.70440	762.04301	-373.31309	494.70541	636.92791	-349.21375	337.50256	714.87346	-384.82666	389.34890	594.25588	-338.67722	412.08436	915.78915	-76.00610	207.38903	966.16968	-164.52497	426.28007	928.26403	-296.10480	216.31687	964.08765	-246.09197	321.53870	1395.63185	-131.11808	373.83991	1346.19287	7.19142	368.18882	1379.35923	-273.92006	444.91326	1325.41941	-115.96827	444.10510	1328.38515	-155.77366	410.22928	1234.99678	55.52944	352.19376	1019.32653	56.53470	391.67163	1035.71143	104.83951	467.88975	979.63441	109.75239	538.20951	852.20076	102.67960	512.02697	842.23033	131.18775	363.01688	1289.50868	-360.07341	283.25228	1077.23653	-377.78535	308.45820	1105.03386	-432.90121	368.25713	1019.85820	-465.05181	408.86717	898.49731	-480.91097	375.30019	895.83703	-504.65679	323.08468	835.76279	-93.40493	339.76649	847.39123	-299.91387	333.25366	863.56123	-113.26227	349.11411	859.86290	-258.15203	
43	0.42000000	265.46164	480.16154	-77.39712	288.32833	413.99205	-76.73709	199.93891	86.18648	-111.49536	146.10824	67.00498	-157.82970	310.11687	38.10053	-98.01685	354.07918	60.75861	-149.43694	509.15697	489.35584	-324.02611	555.53600	415.20122	-308.22492	531.89131	105.24328	-312.90290	477.87174	58.72762	-271.10723	642.64229	68.55833	-334.24069	685.35866	101.77222	-279.91019	258.17108	305.67032	-76.38912	215.07798	433.47094	-60.98759	176.13408	323.73760	-67.81967	478.02426	422.44732	-354.83179	484.47367	300.04030	-361.23397	351.31241	717.05215	-19.32499	336.09244	605.89700	-39.46424	269.91836	593.03261	-44.89862	238.41161	729.10989	-31.96695	224.86447	621.71646	-69.27224	448.40417	759.80763	-371.99000	503.47431	634.11827	-347.15247	347.90172	713.75998	-384.96254	397.67353	592.57757	-338.28009	420.95325	914.92713	-75.26184	217.26782	965.09421	-165.83682	437.29964	927.04613	-295.27575	226.97301	963.03370	-247.27391	330.66460	1394.71790	-132.45692	381.97001	1345.77159	6.43598	378.39799	1377.91811	-274.81246	453.96585	1324.65049	-116.12934	453.54096	1327.48845	-155.94181	418.21941	1234.91214	55.41246	361.55463	1018.78372	56.40464	400.73882	1035.50090	104.87514	477.50063	980.10783	109.78611	548.96376	853.40267	102.58318	522.91306	843.14686	131.07154	373.97441	1287.76443	-360.65091	295.11822	1075.17859	-378.33380	320.39944	1102.98762	-433.35891	380.55154	1017.85914	-464.99965	421.63866	896.64960	-480.32903	388.09119	893.76475	-504.27938	332.18640	834.85062	-93.42308	350.86054	846.19256	-299.77472	342.58291	862.41433	-113.29335	359.83632	858.75173	-258.05201	
